<svg fill="none" height="24" viewBox="0 0 24 24" width="24" xmlns="http://www.w3.org/2000/svg"><path clip-rule="evenodd" d="m12 22c5.5228 0 10-4.4772 10-10 0-5.52285-4.4772-10-10-10-5.52285 0-10 4.47715-10 10 0 1.5997.37562 3.1116 1.04346 4.4525.17748.3563.23655.7636.13366 1.1481l-.59561 2.2261c-.25856.9663.6255 1.8503 1.59184 1.5918l2.22604-.5956c.38454-.1029.79182-.0438 1.14814.1336 1.34084.6679 2.85277 1.0435 4.45247 1.0435zm-4-8.75c-.41421 0-.75.3358-.75.75s.33579.75.75.75h5.5c.4142 0 .75-.3358.75-.75s-.3358-.75-.75-.75zm-.75-2.75c0-.4142.33579-.75.75-.75h8c.4142 0 .75.3358.75.75s-.3358.75-.75.75h-8c-.41421 0-.75-.3358-.75-.75z" fill="#1c274c" fill-rule="evenodd"/></svg>