<svg fill="none" height="24" viewBox="0 0 24 24" width="24" xmlns="http://www.w3.org/2000/svg"><g fill="#1c274c"><path d="m12 22c5.5228 0 10-4.4772 10-10 0-5.52285-4.4772-10-10-10-5.52285 0-10 4.47715-10 10 0 1.5997.37562 3.1116 1.04346 4.4525.17748.3563.23655.7636.13366 1.1481l-.59561 2.2261c-.25856.9663.6255 1.8503 1.59184 1.5918l2.22604-.5956c.38454-.1029.79182-.0438 1.14814.1336 1.34083.6679 2.85277 1.0435 4.45247 1.0435z" opacity=".5"/><path d="m7.825 12.85c-.45563 0-.825.3694-.825.825s.36937.825.825.825h6.05c.4556 0 .825-.3694.825-.825s-.3694-.825-.825-.825z"/><path d="m7.825 9c-.45563 0-.825.36937-.825.825 0 .4556.36937.825.825.825h8.8c.4556 0 .825-.3694.825-.825 0-.45563-.3694-.825-.825-.825z"/></g></svg>